<svg width="68" height="30" viewBox="0 0 72 36" fill="none" xmlns="http://www.w3.org/2000/svg">
<rect x="0.236328" y="0.460938" width="71" height="35" rx="17.5" fill="#FF001F"/>
<path d="M22.986 23.9645C22.986 23.2005 22.9802 22.4277 22.9686 21.6463C22.9628 20.859 22.9397 20.0834 22.8992 19.3193C22.8644 18.5495 22.8123 17.7941 22.7429 17.0532C22.6734 16.3123 22.575 15.6032 22.4477 14.9259C22.3261 14.2429 22.1727 13.6004 21.9875 12.9984C21.8023 12.3964 21.5765 11.8465 21.3102 11.3487L23.5243 9.96816C23.8253 10.437 24.0771 10.929 24.2797 11.4442C24.4823 11.9594 24.6502 12.4948 24.7833 13.0505C24.9222 13.6004 25.0351 14.1677 25.1219 14.7523C25.2145 15.3311 25.3013 15.9215 25.3824 16.5235C25.4403 16.9866 25.4866 17.4873 25.5213 18.0256C25.556 18.5639 25.5821 19.111 25.5995 19.6666C25.6226 20.2223 25.6371 20.7722 25.6429 21.3163C25.6487 21.8604 25.6515 22.3698 25.6515 22.8445V23.9645H22.986ZM34.0875 16.5235C34.1049 17.1197 34.1599 17.7304 34.2525 18.3556C34.3451 18.9807 34.4638 19.5798 34.6085 20.1529C34.759 20.7259 34.9298 21.2498 35.1208 21.7244C35.3118 22.1991 35.5144 22.5782 35.7286 22.8618L33.7055 24.4334C33.4682 24.1787 33.2598 23.8777 33.0804 23.5304C32.9009 23.1889 32.7475 22.8213 32.6202 22.4277C32.4928 22.0283 32.3858 21.6144 32.2989 21.1861C32.2121 20.7578 32.1398 20.3323 32.0819 19.9098C32.0298 19.4814 31.9893 19.0675 31.9603 18.6681C31.9314 18.2629 31.9082 17.8896 31.8908 17.5481C31.6883 17.5712 31.4596 17.5886 31.2049 17.6002C30.956 17.606 30.7332 17.6089 30.5364 17.6089C30.0443 17.6089 29.5784 17.5568 29.1385 17.4526C28.7043 17.3484 28.3194 17.1689 27.9837 16.9143C27.6537 16.6538 27.3846 16.3094 27.1762 15.881C26.9678 15.4527 26.8463 14.9144 26.8115 14.2661C26.8115 13.9361 26.852 13.6004 26.9331 13.2589C27.0141 12.9116 27.1299 12.5787 27.2804 12.2604C27.4309 11.9362 27.6103 11.6352 27.8187 11.3574C28.0329 11.0737 28.2673 10.8306 28.522 10.628C28.7825 10.4197 29.0603 10.2576 29.3555 10.1418C29.6565 10.026 29.972 9.97395 30.3019 9.98553C30.5277 9.99711 30.7708 10.0405 31.0313 10.1158C31.2975 10.1852 31.5609 10.3097 31.8214 10.4891C32.0877 10.6628 32.3481 10.9059 32.6028 11.2185C32.8575 11.531 33.089 11.9304 33.2974 12.4167C33.419 12.7119 33.5261 13.0418 33.6187 13.4065C33.7171 13.7711 33.7981 14.1387 33.8618 14.5092C33.9255 14.8796 33.9747 15.2414 34.0094 15.5945C34.0499 15.9476 34.076 16.2573 34.0875 16.5235ZM30.3801 14.9086C30.4669 14.9086 30.5653 14.9086 30.6753 14.9086C30.7911 14.9028 30.9097 14.897 31.0313 14.8912C31.1528 14.8854 31.2686 14.8796 31.3786 14.8738C31.4943 14.8623 31.5927 14.8507 31.6738 14.8391C31.6448 14.6365 31.5899 14.4108 31.5088 14.1619C31.4336 13.913 31.3323 13.6756 31.2049 13.4499C31.0834 13.2241 30.9329 13.0302 30.7534 12.8682C30.5798 12.7003 30.383 12.6019 30.163 12.5729C30.0299 12.5556 29.891 12.6019 29.7462 12.7119C29.6073 12.8218 29.48 12.9637 29.3642 13.1373C29.2484 13.3052 29.15 13.4875 29.069 13.6843C28.9938 13.8811 28.9561 14.0606 28.9561 14.2226C28.9561 14.3616 28.9995 14.4773 29.0864 14.5699C29.1732 14.6568 29.2861 14.7262 29.425 14.7783C29.5639 14.8304 29.7173 14.8652 29.8852 14.8825C30.053 14.8999 30.218 14.9086 30.3801 14.9086ZM36.9384 11.9912C36.9384 11.123 37.2191 10.4168 37.7806 9.87265C38.3479 9.32854 39.0888 9.05649 40.0034 9.05649C40.9353 9.05649 41.682 9.32565 42.2435 9.86397C42.8107 10.4023 43.0944 11.1287 43.0944 12.0433V12.7466C43.0944 13.6206 42.8107 14.3268 42.2435 14.8652C41.682 15.3977 40.944 15.664 40.0294 15.664C39.1033 15.664 38.3566 15.3948 37.7893 14.8565C37.222 14.3182 36.9384 13.5946 36.9384 12.6858V11.9912ZM38.8052 12.7466C38.8052 13.1344 38.918 13.447 39.1438 13.6843C39.3695 13.9216 39.6647 14.0403 40.0294 14.0403C40.3941 14.0403 40.6835 13.9216 40.8977 13.6843C41.1118 13.4412 41.2189 13.1171 41.2189 12.7119V11.9912C41.2189 11.6034 41.1118 11.2908 40.8977 11.0535C40.6835 10.8104 40.3854 10.6888 40.0034 10.6888C39.6503 10.6888 39.3608 10.8075 39.1351 11.0448C38.9151 11.2821 38.8052 11.6121 38.8052 12.0346V12.7466ZM43.7195 19.9792C43.7195 19.0994 44.006 18.3932 44.5791 17.8607C45.1521 17.3223 45.8931 17.0532 46.8018 17.0532C47.728 17.0532 48.4747 17.3194 49.042 17.852C49.6092 18.3787 49.8928 19.1081 49.8928 20.04V20.7433C49.8928 21.6115 49.6121 22.3148 49.0506 22.8532C48.4949 23.3857 47.7511 23.652 46.8192 23.652C45.8873 23.652 45.1377 23.3828 44.5704 22.8445C44.0031 22.3062 43.7195 21.5913 43.7195 20.6999V19.9792ZM45.595 20.7433C45.595 21.0964 45.7107 21.4003 45.9423 21.655C46.1796 21.9096 46.4719 22.037 46.8192 22.037C47.6122 22.037 48.0087 21.5971 48.0087 20.7172V19.9792C48.0087 19.5914 47.8987 19.2788 47.6788 19.0415C47.4588 18.8042 47.1665 18.6855 46.8018 18.6855C46.4372 18.6855 46.1449 18.8042 45.9249 19.0415C45.7049 19.2788 45.595 19.6001 45.595 20.0053V20.7433ZM40.5851 22.4017L39.2046 21.655L46.142 10.5586L47.5138 11.3053L40.5851 22.4017Z" fill="white"/>
</svg>
