<svg width="28" height="28" viewBox="0 0 32 32" fill="none" xmlns="http://www.w3.org/2000/svg">
<path d="M18.4418 27.6638C18.0709 28.0347 17.6105 28.2202 17.0608 28.2202C16.511 28.2202 16.0506 28.0347 15.6797 27.6638L4.31302 16.2971C4.1259 16.11 3.97894 15.8943 3.87215 15.6501C3.76532 15.4058 3.71191 15.1463 3.71191 14.8714V5.63595C3.71191 5.10771 3.90277 4.65274 4.28448 4.27105C4.66617 3.88934 5.12113 3.69849 5.64938 3.69849H14.8848C15.1514 3.69849 15.4068 3.74983 15.6511 3.85252C15.8953 3.95518 16.1069 4.09593 16.2857 4.27476L27.6524 15.6613C28.0316 16.0405 28.2233 16.5038 28.2274 17.0511C28.2316 17.5983 28.0482 18.0575 27.6772 18.4284L18.4418 27.6638ZM17.0608 26.3026L26.2962 17.0672L14.8848 5.63595H5.64938V14.8714L17.0608 26.3026ZM8.87855 10.4797C9.32566 10.4797 9.70653 10.3224 10.0212 10.0077C10.3358 9.6931 10.4931 9.31223 10.4931 8.86512C10.4931 8.41801 10.3358 8.03714 10.0212 7.72251C9.70653 7.40789 9.32566 7.25057 8.87855 7.25057C8.43144 7.25057 8.05057 7.40789 7.73594 7.72251C7.42131 8.03714 7.264 8.41801 7.264 8.86512C7.264 9.31223 7.42131 9.6931 7.73594 10.0077C8.05057 10.3224 8.43144 10.4797 8.87855 10.4797ZM18.104 21.8588L21.4971 18.4036C21.7091 18.1916 21.8747 17.9428 21.9939 17.6571C22.1131 17.3715 22.1727 17.0622 22.1727 16.7294C22.1727 16.0885 21.9455 15.5367 21.4909 15.0738C21.0363 14.611 20.4886 14.3796 19.8478 14.3796C19.4305 14.3796 19.0206 14.4938 18.6182 14.7223C18.2158 14.9509 17.7679 15.345 17.2744 15.9047C16.7279 15.3185 16.2634 14.9178 15.8809 14.7025C15.4983 14.4872 15.1051 14.3796 14.701 14.3796C14.0601 14.3796 13.5124 14.611 13.0579 15.0738C12.6033 15.5367 12.376 16.0885 12.376 16.7294C12.376 17.0622 12.4356 17.3715 12.5549 17.6571C12.6741 17.9428 12.8397 18.1916 13.0516 18.4036L16.4447 21.8588C16.6782 22.0923 16.9548 22.209 17.2744 22.209C17.594 22.209 17.8705 22.0923 18.104 21.8588Z" fill="#171E4C"/>
</svg>
