<svg width="26" height="26" viewBox="0 0 26 26" fill="none" xmlns="http://www.w3.org/2000/svg">
<path d="M13.0137 21.0013C12.791 21.0013 12.5673 20.9613 12.3426 20.8813C12.1179 20.8013 11.9202 20.6759 11.7495 20.5052L10.2552 19.1469C8.41077 17.4652 6.76407 15.8132 5.31508 14.1908C3.8661 12.5685 3.1416 10.8304 3.1416 8.9767C3.1416 7.50038 3.63938 6.26445 4.63493 5.2689C5.63048 4.27335 6.86641 3.77557 8.34272 3.77557C9.18156 3.77557 10.0101 3.96895 10.8283 4.35571C11.6464 4.74247 12.3783 5.37061 13.0238 6.24014C13.6692 5.37061 14.4011 4.74247 15.2192 4.35571C16.0374 3.96895 16.8659 3.77557 17.7048 3.77557C19.1811 3.77557 20.417 4.27335 21.4126 5.2689C22.4081 6.26445 22.9059 7.50038 22.9059 8.9767C22.9059 10.8504 22.1691 12.6078 20.6954 14.2488C19.2218 15.8899 17.5787 17.5279 15.7663 19.1629L14.288 20.5052C14.1173 20.6759 13.9179 20.8013 13.6899 20.8813C13.4618 20.9613 13.2365 21.0013 13.0137 21.0013ZM12.2756 7.82045C11.7128 6.96292 11.1204 6.33445 10.4982 5.93504C9.87607 5.53561 9.15757 5.33589 8.34272 5.33589C7.30249 5.33589 6.43564 5.68264 5.74215 6.37612C5.04866 7.06961 4.70192 7.93647 4.70192 8.9767C4.70192 9.81155 4.97098 10.6844 5.50909 11.5953C6.0472 12.5061 6.72267 13.4116 7.53551 14.3118C8.34836 15.212 9.22889 16.0916 10.1771 16.9504C11.1253 17.8093 12.0042 18.6075 12.8137 19.345C12.8737 19.3983 12.9437 19.425 13.0238 19.425C13.1038 19.425 13.1738 19.3983 13.2338 19.345C14.0434 18.6075 14.9222 17.8093 15.8704 16.9504C16.8186 16.0916 17.6992 15.212 18.512 14.3118C19.3248 13.4116 20.0003 12.5061 20.5384 11.5953C21.0765 10.6844 21.3456 9.81155 21.3456 8.9767C21.3456 7.93647 20.9989 7.06961 20.3054 6.37612C19.6119 5.68264 18.745 5.33589 17.7048 5.33589C16.8899 5.33589 16.1714 5.53561 15.5493 5.93504C14.9272 6.33445 14.3347 6.96292 13.7719 7.82045C13.6839 7.95381 13.5732 8.05384 13.4398 8.12053C13.3065 8.18721 13.1678 8.22055 13.0238 8.22055C12.8797 8.22055 12.741 8.18721 12.6077 8.12053C12.4743 8.05384 12.3636 7.95381 12.2756 7.82045Z" fill="#171E4C"/>
</svg>
