<svg width="26" height="26" viewBox="0 0 26 26" fill="none" xmlns="http://www.w3.org/2000/svg">
<path d="M7.9262 22.9237C7.42077 22.9237 6.99101 22.7466 6.63694 22.3926C6.28286 22.0385 6.10582 21.6087 6.10582 21.1033C6.10582 20.5979 6.28286 20.1681 6.63694 19.814C6.99101 19.4599 7.42077 19.2829 7.9262 19.2829C8.43164 19.2829 8.86141 19.4599 9.21548 19.814C9.56956 20.1681 9.7466 20.5979 9.7466 21.1033C9.7466 21.6087 9.56956 22.0385 9.21548 22.3926C8.86141 22.7466 8.43164 22.9237 7.9262 22.9237ZM18.0084 22.9237C17.503 22.9237 17.0732 22.7466 16.7191 22.3926C16.3651 22.0385 16.188 21.6087 16.188 21.1033C16.188 20.5979 16.3651 20.1681 16.7191 19.814C17.0732 19.4599 17.503 19.2829 18.0084 19.2829C18.5138 19.2829 18.9436 19.4599 19.2977 19.814C19.6518 20.1681 19.8288 20.5979 19.8288 21.1033C19.8288 21.6087 19.6518 22.0385 19.2977 22.3926C18.9436 22.7466 18.5138 22.9237 18.0084 22.9237ZM6.74192 6.48007L9.37851 12.0013H16.4701C16.5301 12.0013 16.5834 11.9863 16.6301 11.9563C16.6768 11.9263 16.7168 11.8846 16.7502 11.8312L19.5408 6.76013C19.5808 6.68677 19.5841 6.62176 19.5508 6.56509C19.5174 6.50839 19.4607 6.48005 19.3807 6.48005L6.74192 6.48007ZM5.99376 4.91978H20.4369C20.8623 4.91978 21.1841 5.10081 21.4021 5.46288C21.6202 5.82497 21.6305 6.19472 21.4331 6.57213L18.1004 12.6094C17.9297 12.9095 17.704 13.1432 17.4233 13.3106C17.1425 13.4779 16.8348 13.5616 16.5001 13.5616H8.91041L7.70614 15.7621C7.65279 15.8421 7.65113 15.9288 7.70114 16.0222C7.75116 16.1155 7.82618 16.1622 7.9262 16.1622H19.8288V17.7225H7.9262C7.23273 17.7225 6.71162 17.4235 6.36286 16.8253C6.01413 16.2272 6.00179 15.6301 6.32586 15.034L7.81021 12.3654L4.02536 4.39959H2.04492V2.83929H5.00555L5.99376 4.91975V4.91978Z" fill="#171E4C"/>
</svg>
