<svg width="9" height="14" viewBox="0 0 9 14" fill="none" xmlns="http://www.w3.org/2000/svg">
<path d="M2.75115 6.96925L8.0122 12.2303C8.19105 12.4092 8.28255 12.634 8.28668 12.9047C8.29083 13.1754 8.19934 13.4044 8.0122 13.5915C7.82508 13.7786 7.59822 13.8722 7.33162 13.8722C7.06502 13.8722 6.83816 13.7786 6.65104 13.5915L0.846001 7.78645C0.725101 7.66557 0.639818 7.53807 0.590154 7.40393C0.540468 7.26981 0.515625 7.12492 0.515625 6.96925C0.515625 6.81358 0.540468 6.66869 0.590154 6.53457C0.639818 6.40043 0.725101 6.27292 0.846001 6.15204L6.65104 0.347002C6.82987 0.168149 7.05467 0.0766564 7.32542 0.0725231C7.59615 0.0683682 7.82508 0.159861 8.0122 0.347002C8.19934 0.534122 8.29291 0.760981 8.29291 1.02758C8.29291 1.29418 8.19934 1.52104 8.0122 1.70816L2.75115 6.96925Z" fill="#FF4040"/>
</svg>
